<svg width="2521" height="2521" viewBox="0 0 2521 2521" fill="none" xmlns="http://www.w3.org/2000/svg">
<g filter="url(#filter0_d_5_4)">
<rect x="260.104" y="260.207" width="2000" height="2000" rx="560" fill="#F6F6F6"/>
</g>
<path d="M1219.66 961.446C1230.19 957.459 1241.01 956.89 1252.12 959.738C1262.94 962.87 1271.77 968.993 1278.6 978.105C1285.44 986.933 1288.86 997.043 1288.86 1008.43V1521.88C1288.86 1535.84 1284.01 1547.65 1274.33 1557.34C1264.36 1567.3 1252.4 1572.29 1238.45 1572.29C1224.5 1572.29 1212.54 1567.3 1202.57 1557.34C1192.89 1547.65 1188.05 1535.84 1188.05 1521.88V1189.55L1028.71 1452.68C1028.71 1452.68 1028.71 1452.82 1028.71 1453.11L1028.29 1453.54C1028.29 1453.54 1028.14 1453.68 1027.86 1453.96C1027.57 1454.25 1027.43 1454.39 1027.43 1454.39C1026.58 1455.81 1026.01 1456.81 1025.72 1457.38L1024.44 1459.09C1023.3 1460.23 1022.59 1460.94 1022.31 1461.22C1022.02 1461.51 1021.45 1462.08 1020.6 1462.93C1019.74 1463.79 1019.17 1464.36 1018.89 1464.64C1018.32 1465.21 1017.47 1465.92 1016.33 1466.78C1015.47 1467.63 1015.04 1468.06 1015.04 1468.06C1014.19 1468.63 1013.19 1469.2 1012.05 1469.77C1012.05 1470.05 1011.91 1470.2 1011.63 1470.2C1011.34 1470.48 1011.2 1470.62 1011.2 1470.62C1011.2 1470.62 1011.06 1470.62 1010.77 1470.62C1010.2 1471.19 1009.21 1471.76 1007.78 1472.33C1006.64 1472.9 1006.22 1473.19 1006.5 1473.19C1006.22 1473.19 1005.36 1473.47 1003.94 1474.04C997.389 1476.89 990.554 1478.17 983.435 1477.88H982.581C983.15 1477.88 982.581 1477.74 980.872 1477.46C977.17 1477.17 973.468 1476.46 969.766 1475.32C968.342 1475.04 967.772 1474.89 968.057 1474.89C968.627 1475.18 968.057 1475.04 966.349 1474.47C964.925 1473.9 963.928 1473.47 963.358 1473.19C963.643 1473.19 963.358 1472.9 962.504 1472.33C961.08 1471.76 959.941 1471.19 959.087 1470.62H958.66C958.66 1470.62 958.517 1470.48 958.233 1470.2C958.233 1470.2 958.09 1470.05 957.805 1469.77C956.666 1469.2 955.67 1468.49 954.815 1467.63C954.815 1467.92 954.388 1467.63 953.534 1466.78C952.395 1465.92 951.54 1465.21 950.971 1464.64C950.686 1464.36 950.116 1463.79 949.262 1462.93C948.408 1462.08 947.838 1461.51 947.553 1461.22C947.269 1460.66 946.557 1459.94 945.418 1459.09C944.848 1458.23 944.563 1457.66 944.563 1457.38C943.994 1456.81 943.282 1455.81 942.428 1454.39C942.428 1454.39 942.285 1454.25 942 1453.96C942 1453.68 941.858 1453.54 941.573 1453.54V1453.11C941.573 1452.82 941.431 1452.68 941.146 1452.68L782.242 1189.55V1521.88C782.242 1535.84 777.259 1547.65 767.292 1557.34C757.324 1567.3 745.364 1572.29 731.41 1572.29C717.456 1572.29 705.638 1567.3 695.956 1557.34C685.989 1547.65 681.005 1535.84 681.005 1521.88V1008.43C681.005 997.043 684.422 986.933 691.257 978.105C698.091 968.993 707.062 962.87 718.168 959.738C728.989 956.89 739.668 957.459 750.205 961.446C760.742 965.718 769 972.695 774.98 982.377L985.144 1329.66L1195.31 982.377C1201 972.695 1209.12 965.718 1219.66 961.446ZM1533.19 1471.05H1791.62C1805.58 1471.05 1817.4 1476.03 1827.08 1486C1837.05 1495.97 1842.03 1507.93 1842.03 1521.88C1842.03 1535.84 1837.05 1547.65 1827.08 1557.34C1817.4 1567.3 1805.58 1572.29 1791.62 1572.29H1482.36C1468.41 1572.29 1456.59 1567.3 1446.9 1557.34C1436.94 1547.65 1431.95 1535.84 1431.95 1521.88V1009.72C1431.95 995.477 1436.94 983.516 1446.9 973.834C1456.59 963.867 1468.41 958.883 1482.36 958.883H1482.79L1791.62 959.738C1805.58 959.738 1817.54 964.721 1827.51 974.688C1837.19 984.655 1842.03 996.616 1842.03 1010.57C1842.03 1024.52 1837.05 1036.34 1827.08 1046.02C1817.4 1055.99 1805.58 1060.97 1791.62 1060.97H1791.2L1533.19 1060.12V1215.18H1719.43C1733.39 1215.18 1745.35 1220.02 1755.32 1229.7C1765.28 1239.67 1770.27 1251.63 1770.27 1265.58C1770.27 1279.54 1765.28 1291.5 1755.32 1301.47C1745.35 1311.15 1733.39 1315.99 1719.43 1315.99H1533.19V1471.05Z" fill="url(#paint0_linear_5_4)"/>
<defs>
<filter id="filter0_d_5_4" x="0.103516" y="0.206585" width="2520" height="2520" filterUnits="userSpaceOnUse" color-interpolation-filters="sRGB">
<feFlood flood-opacity="0" result="BackgroundImageFix"/>
<feColorMatrix in="SourceAlpha" type="matrix" values="0 0 0 0 0 0 0 0 0 0 0 0 0 0 0 0 0 0 127 0" result="hardAlpha"/>
<feMorphology radius="10" operator="dilate" in="SourceAlpha" result="effect1_dropShadow_5_4"/>
<feOffset/>
<feGaussianBlur stdDeviation="125"/>
<feComposite in2="hardAlpha" operator="out"/>
<feColorMatrix type="matrix" values="0 0 0 0 0 0 0 0 0 0 0 0 0 0 0 0 0 0 0.25 0"/>
<feBlend mode="normal" in2="BackgroundImageFix" result="effect1_dropShadow_5_4"/>
<feBlend mode="normal" in="SourceGraphic" in2="effect1_dropShadow_5_4" result="shape"/>
</filter>
<linearGradient id="paint0_linear_5_4" x1="632.163" y1="901.287" x2="1930.46" y2="1534.44" gradientUnits="userSpaceOnUse">
<stop stop-color="#D940FF"/>
<stop offset="1" stop-color="#0075FF"/>
</linearGradient>
</defs>
</svg>
